<?xml version="1.0" standalone="no"?>
<!DOCTYPE svg PUBLIC "-//W3C//DTD SVG 20010904//EN"
 "http://www.w3.org/TR/2001/REC-SVG-20010904/DTD/svg10.dtd">
<svg version="1.0" xmlns="http://www.w3.org/2000/svg"
 width="2000.000000pt" height="1247.000000pt" viewBox="0 0 2000.000000 1247.000000"
 preserveAspectRatio="xMidYMid meet">

<g transform="translate(0.000000,1247.000000) scale(0.100000,-0.100000)"
fill="#000000" stroke="none">
<path d="M10220 9395 l0 -1515 120 0 120 0 0 1390 0 1390 4430 0 4430 0 0
-4425 0 -4425 -4430 0 -4430 0 0 1390 0 1390 -120 0 -120 0 0 -1515 0 -1515
4668 2 4667 3 0 4670 0 4670 -4667 3 -4668 2 0 -1515z"/>
<path d="M3922 7570 c-55 -8 -92 -32 -92 -58 0 -28 661 -2556 672 -2569 19
-23 82 -33 221 -33 151 0 199 12 217 52 6 13 102 365 214 784 179 669 209 788
242 992 21 128 41 232 44 232 3 0 22 -105 42 -232 34 -215 53 -292 247 -1012
160 -594 214 -782 228 -790 35 -21 59 -24 200 -25 151 -1 214 12 228 47 20 53
665 2526 665 2551 0 23 -7 34 -27 44 -66 33 -249 27 -284 -10 -11 -12 -103
-368 -265 -1023 -136 -553 -260 -1052 -274 -1110 -30 -117 -26 -119 -55 45
-25 137 -505 2047 -521 2073 -23 35 -60 45 -169 45 -104 1 -156 -14 -168 -47
-4 -9 -112 -442 -241 -963 -323 -1304 -313 -1262 -320 -1233 -3 14 -19 93 -35
175 -25 130 -504 2005 -517 2027 -21 33 -153 54 -252 38z"/>
<path d="M11838 7571 c-29 -4 -57 -16 -73 -31 l-26 -24 4 -956 c3 -953 3 -955
25 -1040 76 -284 259 -469 557 -563 262 -82 652 -80 915 4 133 43 238 107 335
204 141 140 203 278 225 504 7 69 10 410 8 978 -3 864 -3 873 -24 893 -46 46
-242 46 -288 0 -21 -20 -21 -29 -26 -968 -5 -943 -5 -947 -27 -1000 -56 -136
-155 -238 -298 -307 -153 -73 -317 -99 -490 -76 -278 37 -474 177 -558 399
-22 57 -22 60 -24 982 -2 509 -5 935 -8 947 -3 13 -18 29 -33 37 -34 17 -132
26 -194 17z"/>
<path d="M14287 7570 c-70 -9 -101 -33 -93 -72 3 -14 188 -295 411 -624 l405
-597 0 -651 c0 -724 -4 -686 68 -706 49 -13 168 -12 212 3 19 7 40 23 47 37
10 19 13 170 13 667 l0 642 401 597 c221 328 407 610 413 626 9 24 7 31 -9 48
-43 42 -238 46 -300 6 -13 -8 -167 -227 -343 -486 l-320 -471 -165 243 c-90
134 -231 344 -314 468 -83 124 -159 233 -170 243 -35 31 -139 42 -256 27z"/>
<path d="M7575 7563 c-11 -2 -30 -6 -42 -9 -55 -11 -53 43 -53 -1319 l0 -1257
29 -29 29 -29 711 0 710 0 15 22 c12 17 16 48 16 119 0 154 67 139 -605 142
l-570 2 -3 463 -2 462 510 0 c492 0 511 1 529 19 41 41 42 205 2 245 -21 21
-26 21 -531 24 l-510 3 0 429 0 430 568 0 c669 0 605 -14 610 130 5 111 -9
144 -65 154 -42 6 -1316 6 -1348 -1z"/>
<path d="M9626 7560 c-22 -4 -48 -18 -58 -30 -17 -21 -18 -81 -18 -1292 l0
-1269 25 -24 24 -25 448 0 c473 0 559 6 723 50 261 71 442 241 505 475 9 33
19 116 22 185 9 204 -31 320 -154 450 -80 85 -184 157 -292 201 -45 18 -78 36
-74 40 5 3 23 11 41 17 87 29 215 145 280 254 145 244 109 550 -89 749 -135
136 -305 201 -579 219 -168 11 -746 11 -804 0z m909 -303 c145 -37 223 -95
271 -200 27 -57 29 -71 29 -182 0 -111 -2 -124 -28 -177 -41 -83 -114 -159
-195 -201 -120 -64 -156 -69 -459 -74 l-273 -5 0 432 0 432 298 -5 c222 -3
312 -9 357 -20z m-61 -1127 c287 -28 445 -150 476 -368 30 -213 -62 -412 -229
-497 -106 -53 -140 -58 -503 -62 l-338 -5 0 471 0 471 243 0 c133 0 291 -5
351 -10z"/>
</g>
</svg>
